 <svg
    height="140px"
    viewBox="0 0 512 512"
    width="140px"
    xmlns="http://www.w3.org/2000/svg"
  >
    <g id="BULINE">
      <circle cx="256" cy="256" fill="#934cf5" r="256" />
    </g>
    <g id="Icons">
      <path
        d="m369.71 485.42c-105.28 52.27-236.18 24.1-311-66.28 13.23-34 30.47-68 50.14-96.12-14.76-29.1-25-61.2-28.41-93.72a174.58 174.58 0 0 1 2-52.91c1.61-8 16.39-36.91 12.85-43.69a5.67 5.67 0 0 0 -1-1.41 1.89 1.89 0 0 0 -.2-.2 6.2 6.2 0 0 0 -4.09-1.69l-22.84-.24c-11.68-.14-1.53-13 1.79-16.07a141.7 141.7 0 0 1 23.35-19.78 148.53 148.53 0 0 1 18.17-10.31 67.31 67.31 0 0 1 7.3-3.29 159.49 159.49 0 0 1 34.13-10.43c2.73-.61 5.52-1.1 8.29-1.52h.31a180.53 180.53 0 0 1 43.37-2.32c51.49 0 94.32 36.72 113 83 22.91 56.58 8.77 122-18 174.72 33.67 48.25 57.7 105.12 70.74 162.4-34.16 16.87-7.9-35.27.1-.14z"
        fill="#32314b"
      />
      <path
        d="m131 328.75c11.77 66.78 35.55 126.08 66 171.52a2.73 2.73 0 0 1 -2.92 4.18 256 256 0 0 1 -135.37-85.31c13-33.49 29.92-66.89 49.22-94.79a2.69 2.69 0 0 0 .19-2.76c-14.38-28.71-24.28-60.31-27.67-92.28a174.58 174.58 0 0 1 2-52.91c1.53-7.64 7.77-30.63 12.11-41.84a2.75 2.75 0 0 0 -.92-3.18c-1.2-.9-2.78-1.93-3.71-2l-22.84-.24c-11.7-.14-1.54-13 1.79-16.07a141.7 141.7 0 0 1 23.42-19.76 147.22 147.22 0 0 1 18.17-10.31 66.45 66.45 0 0 1 7.3-3.29 159.49 159.49 0 0 1 34.13-10.43c2.73-.61 5.52-1.1 8.29-1.52h.31.06a2.72 2.72 0 0 1 2.75 4.1c-45.1 74.86-47.13 173.39-32.37 257 12.32 69.55-1.87-10.93.06-.11z"
        fill="#27273d"
      />
      <path
        d="m305 225.35c0-61.35-45.26-111.08-101.08-111.08s-101.09 49.73-101.09 111.08c0 32.42 12.64 61.58 32.79 81.89a54.38 54.38 0 0 0 -.4 6.53c0 33.42 68.69 60.5 68.69 60.5s68.69-27.08 68.69-60.5a52.4 52.4 0 0 0 -.41-6.53c20.16-20.31 32.81-49.47 32.81-81.89z"
        fill="#1c1c2b"
      />
      <path
        d="m285.84 240.72v2.87c-.05 1.32-.13 2.62-.25 3.89a31 31 0 0 1 -30.9 28.09v19.26a4.05 4.05 0 0 1 -4 4.06h-14.79a4.06 4.06 0 0 1 -4.06-4.06v-19.26h-3.42v19.26a4.06 4.06 0 0 1 -4.06 4.06h-14.67a4.07 4.07 0 0 1 -4.07-4.07v-19.25h-3.42v19.26a4.06 4.06 0 0 1 -4.06 4.06h-14.68a4.07 4.07 0 0 1 -4.06-4.07v-19.25h-3.4v19.26a4.05 4.05 0 0 1 -4 4.06h-14.76a4.06 4.06 0 0 1 -4.06-4.06v-19.26a31 31 0 0 1 -30.89-28.11c-.12-1.26-.2-2.55-.25-3.87-.05-.94-.06-1.89-.06-2.87 0 0 .19-35.94.33-54a19.37 19.37 0 0 1 10-16.87c20.49-11.23 45.12-9.81 71.62-9.81s51.06-1.43 71.54 9.76a19.37 19.37 0 0 1 10 16.89z"
        fill="#fff"
      />
      <path
        d="m189.84 213.16a5.63 5.63 0 0 1 1.84 8.28 27.52 27.52 0 0 1 -47.89-26.09 5.65 5.65 0 0 1 8-3z"
        fill="#32314b"
      />
      <path
        d="m217.94 213.16a5.63 5.63 0 0 0 -1.83 8.28 27.52 27.52 0 0 0 47.89-26.09 5.64 5.64 0 0 0 -8-3z"
        fill="#32314b"
      />
      <path
        d="m197.19 237.36-13.66 18.1a2.43 2.43 0 0 0 2.55 3.82l13.65-3.5a2.43 2.43 0 0 0 1.83-2.35v-14.6a2.43 2.43 0 0 0 -4.37-1.47z"
        fill="#32314b"
      />
      <path
        d="m210.68 237.36 13.65 18.1a2.43 2.43 0 0 1 -2.54 3.82l-13.66-3.5a2.42 2.42 0 0 1 -1.82-2.35v-14.6a2.43 2.43 0 0 1 4.37-1.47z"
        fill="#32314b"
      />
      <path
        d="m184.16 38.39 17.66-9a54.5 54.5 0 0 1 26.51-6c38 1.12 137.43 16.57 204.36 140.5l-38.6 60.57s-13.09-147.86-208.89-179.55a3.47 3.47 0 0 1 -1.04-6.52z"
        fill="#fff"
      />
      <path
        d="m403.12 210.23-9 14.16s-13.12-147.78-208.92-179.48a3.48 3.48 0 0 1 -1-6.52l13.72-7c192.3 32.9 205.2 178.84 205.2 178.84z"
        fill="#e5e5e5"
      />
      <path
        d="m478.37 136.42a12.78 12.78 0 0 1 -2 6.91l-234.72 368.27a253 253 0 0 1 -28.56-3.19l241.5-378.94a12.9 12.9 0 0 1 23.78 6.95z"
        fill="#a65c3b"
      />
      <rect
        fill="#e5e5e5"
        height="111.35"
        rx="14.74"
        transform="matrix(.843 .537 -.537 .843 170.71 -200.87)"
        width="43.51"
        x="408.07"
        y="136.65"
      />
      <path
        d="m403.91 241.83-9.91-6.32a14.75 14.75 0 0 1 -4.51-20.35l44-69a14.75 14.75 0 0 1 20.35-4.51l9.93 6.33a14.73 14.73 0 0 0 -20.35 4.51l-44 69a14.74 14.74 0 0 0 4.49 20.34z"
        fill="#cecece"
      />
      <g fill="#fff">
        <rect
          height="23.33"
          rx="5.33"
          transform="matrix(.65 -.76 .76 .65 -250.74 351.27)"
          width="14.86"
          x="248.79"
          y="436.35"
        />
        <rect
          height="23.33"
          rx="5.33"
          transform="matrix(.65 -.76 .76 .65 -256.07 370.03)"
          width="14.86"
          x="266.52"
          y="451.53"
        />
        <rect
          height="23.33"
          rx="5.33"
          transform="matrix(.65 -.76 .76 .65 -232.19 350.89)"
          width="14.86"
          x="257.65"
          y="416.02"
        />
        <rect
          height="23.33"
          rx="5.33"
          transform="matrix(.65 -.76 .76 .65 -237.52 369.66)"
          width="14.86"
          x="275.38"
          y="431.19"
        />
        <rect
          height="23.33"
          rx="5.33"
          transform="matrix(.65 -.76 .76 .65 -216.54 357.56)"
          width="14.86"
          x="272.73"
          y="402.35"
        />
        <rect
          height="23.33"
          rx="5.33"
          transform="matrix(.65 -.76 .76 .65 -221.87 376.33)"
          width="14.86"
          x="290.46"
          y="417.53"
        />
        <rect
          height="23.33"
          rx="5.33"
          transform="matrix(.65 -.76 .76 .65 -196.66 356.57)"
          width="14.86"
          x="281.59"
          y="380.26"
        />
      </g>
    </g>
  </svg>
