<?xml version="1.0" encoding="iso-8859-1"?>
<!-- Generator: Adobe Illustrator 19.0.0, SVG Export Plug-In . SVG Version: 6.00 Build 0)  -->
<svg version="1.1" id="Layer_1" xmlns="http://www.w3.org/2000/svg" xmlns:xlink="http://www.w3.org/1999/xlink" x="0px" y="0px"
	 viewBox="0 0 512.001 512.001" style="enable-background:new 0 0 512.001 512.001;" xml:space="preserve">
<polygon style="fill:#F2F2F2;" points="329.216,256.935 202.991,329.814 202.991,184.055 "/>
<path style="fill:#F14336;" d="M502.656,154.43v203.141c0,36.265-29.401,65.666-65.666,65.666H75.01
	c-36.265,0-65.666-29.401-65.666-65.666V154.43c0-36.265,29.401-65.666,65.666-65.666h361.98
	C473.256,88.764,502.656,118.165,502.656,154.43z M202.991,329.814l126.225-72.879l-126.225-72.879V329.814z"/>
<g>
	<path style="fill:#333333;" d="M436.991,432.581H75.01c-41.361,0-75.01-33.649-75.01-75.01V154.43
		c0-41.361,33.649-75.01,75.01-75.01h361.982c41.361,0,75.01,33.649,75.01,75.01v203.141
		C512,398.932,478.352,432.581,436.991,432.581z M75.01,98.108c-31.057,0-56.323,25.266-56.323,56.323v203.141
		c0,31.057,25.266,56.323,56.323,56.323h361.982c31.057,0,56.323-25.266,56.323-56.323V154.43c0-31.057-25.266-56.323-56.323-56.323
		H75.01z"/>
	<path style="fill:#333333;" d="M202.991,339.158c-1.613,0-3.227-0.417-4.672-1.252c-2.89-1.669-4.672-4.754-4.672-8.091V184.055
		c0-3.338,1.781-6.423,4.672-8.091c2.89-1.669,6.453-1.669,9.344,0l126.223,72.879c2.89,1.669,4.672,4.754,4.672,8.091
		c0,3.337-1.781,6.422-4.672,8.091l-126.223,72.879C206.218,338.741,204.604,339.158,202.991,339.158z M212.335,200.24v113.392
		l98.194-56.695L212.335,200.24z"/>
</g>
<g>
</g>
<g>
</g>
<g>
</g>
<g>
</g>
<g>
</g>
<g>
</g>
<g>
</g>
<g>
</g>
<g>
</g>
<g>
</g>
<g>
</g>
<g>
</g>
<g>
</g>
<g>
</g>
<g>
</g>
</svg>
